<?xml version="1.0" encoding="utf-8"?>
<!-- Generator: Adobe Illustrator 25.0.0, SVG Export Plug-In . SVG Version: 6.00 Build 0)  -->
<svg version="1.1" id="Layer_1" xmlns="http://www.w3.org/2000/svg" xmlns:xlink="http://www.w3.org/1999/xlink" x="0px" y="0px"
	 viewBox="0 0 896 748" style="enable-background:new 0 0 896 748;" xml:space="preserve">
<style type="text/css">
	.st0{fill:#2F2E41;stroke:#000000;stroke-width:4;stroke-miterlimit:10;}
	.st1{fill:#3F3D56;}
</style>
<polygon class="st0" points="585.2,657.7 209,657.7 209,654.7 582.5,654.7 582.5,509.4 240.7,509.4 224,471.1 226.5,469.8 
	242.4,506.4 585.2,506.4 "/>
<ellipse class="st1" cx="259.1" cy="699.6" rx="28.4" ry="31.5"/>
<ellipse class="st1" cx="539.2" cy="699.6" rx="28.4" ry="31.5"/>
<ellipse class="st1" cx="869.4" cy="31.5" rx="17.6" ry="19.5"/>
<path class="st0" d="M625.5,459.9H202.6l-91.5-331.1h608.6l-0.6,1.9L625.5,459.9z M204.6,456.9h418.9L716,131.8H114.8L204.6,456.9z"
	/>
<polygon class="st0" points="727.3,99.3 724.7,98.5 742.5,24 846.4,24 846.4,27 744.6,27 "/>
<rect x="140.7" y="229.2" class="st0" width="548.6" height="3"/>
<rect x="171.2" y="339.6" class="st0" width="486.7" height="3"/>
<rect x="414" y="130.3" class="st0" width="2.7" height="328.1"/>
<polygon class="st0" points="518.5,458.3 537.9,130.3 540.6,130.5 521.2,458.5 "/>
<polygon class="st0" points="290.2,130.4 292.9,130.3 312.2,458.3 309.5,458.5 "/>
</svg>
