<?xml version="1.0" encoding="utf-8"?>
<!-- Generator: Adobe Illustrator 25.0.0, SVG Export Plug-In . SVG Version: 6.00 Build 0)  -->
<svg version="1.1" id="Layer_1" xmlns="http://www.w3.org/2000/svg" xmlns:xlink="http://www.w3.org/1999/xlink" x="0px" y="0px"
	 viewBox="0 0 24 24" style="enable-background:new 0 0 24 24;" xml:space="preserve">
<style type="text/css">
	.st0{fill:none;}
	.st1{opacity:0.3;fill:#E5E5E5;enable-background:new    ;}
	.st2{fill:#e5e5e5;}
</style>
<desc>Created with Sketch.</desc>
<g id="Stockholm-icons-_x2F_-General-_x2F_-Search">
	<rect id="bound" class="st0" width="24" height="24"/>
	<path id="Path-2" class="st1" d="M14.3,16.7c-0.4-0.4-0.4-1,0-1.4c0.4-0.4,1-0.4,1.4,0l4,4c0.4,0.4,0.4,1,0,1.4
		c-0.4,0.4-1,0.4-1.4,0L14.3,16.7z"/>
	<path id="Path" class="st2" d="M11,16c2.8,0,5-2.2,5-5s-2.2-5-5-5s-5,2.2-5,5S8.2,16,11,16z M11,18c-3.9,0-7-3.1-7-7s3.1-7,7-7
		s7,3.1,7,7S14.9,18,11,18z"/>
</g>
</svg>
